<svg xmlns="http://www.w3.org/2000/svg" viewBox="0 0 59.7 63.75"><defs><style>.cls-1{fill:#80cde4;}</style></defs><g id="Vrstva_2" data-name="Vrstva 2"><g id="Vrstva_1-2" data-name="Vrstva 1"><path class="cls-1" d="M0,33.55a7.52,7.52,0,0,0,5.64,7.24,8.82,8.82,0,0,0,5-.14c2-.65,3.64-2,5.58-2.82,3.09-1.25,6.25-1.3,9.53-1.39s6.69-.12,9.83,1A16.14,16.14,0,0,1,46.14,50l.06.39a20.72,20.72,0,0,1-.52,3.55c-.8,3.4.62,7.55,3.86,9.18A7.24,7.24,0,0,0,58,61.24a7.83,7.83,0,0,0,1.42-2.73,7.18,7.18,0,0,0-4.06-8.67,14.34,14.34,0,0,1-6.75-6.57c-.25-.54-.5-1.12-.74-1.76C45.2,34.35,46.55,26,49.48,19.07a15.32,15.32,0,0,1,5.73-6.37,5.81,5.81,0,0,0,2.13-2.6,6.75,6.75,0,0,0-.52-6.32c-2.45-4-7.93-5.13-11.34-2a7.54,7.54,0,0,0-2,7c.37,2.14,1.28,4.15,1.54,6.3a15.21,15.21,0,0,1-.59,6.5l0,.11a14.8,14.8,0,0,1-13.2,10c-2.7.17-6.3.29-10.56.19a11.34,11.34,0,0,1-6-2C13,28.8,11.72,27.22,9.8,26.7,5.35,25.5-.06,28.66,0,33.55Z"/><circle class="cls-1" cx="28.64" cy="20.6" r="7.03"/></g></g></svg>