<svg xmlns="http://www.w3.org/2000/svg" viewBox="0 0 69.83 77.52"><defs><style>.cls-1{fill:#80cde4;}</style></defs><g id="Vrstva_2" data-name="Vrstva 2"><g id="Vrstva_1-2" data-name="Vrstva 1"><path class="cls-1" d="M0,33.55c.39,8.59,9.72,8.7,15.39,4.86a7.23,7.23,0,0,1,2.48-1.08c12-2.72,31.12,8.9,35.29,30,2.46,12.45,15,13.44,16.59,3.54,1.45-9.14-18.28-11.13-21.89-29.31C46.37,34,46.55,26,49.48,19.07c2.19-5.76,11.82-7.7,7.34-15.29-2.45-4-7.93-5.13-11.34-2C40,7.46,47.56,15.16,44.4,21.7,40.78,32.11,30.72,32.24,20.64,31.86c-3.4.2-5.77-2-8.35-3.76a8.22,8.22,0,0,0-9.08-.26A6.74,6.74,0,0,0,0,33.55Z"/><path class="cls-1" d="M29.11,23.61c.11,7.3-11.36,7.3-11.25,0C17.75,16.32,29.22,16.32,29.11,23.61Z"/></g></g></svg>