<svg xmlns="http://www.w3.org/2000/svg" viewBox="0 0 150.95 93.98"><defs><style>.cls-1{fill:#80cde4;}.cls-2,.cls-3{fill:#0cd676;}.cls-3{font-size:26px;font-family:Micra;}</style></defs><g id="Vrstva_2" data-name="Vrstva 2"><g id="Vrstva_1-2" data-name="Vrstva 1"><path class="cls-1" d="M0,63.78A7.52,7.52,0,0,0,5.64,71a8.82,8.82,0,0,0,5-.14c2-.65,3.64-2,5.58-2.82,3.09-1.25,6.25-1.3,9.53-1.39s6.69-.12,9.83,1A16.14,16.14,0,0,1,46.14,80.2l.06.39a20.72,20.72,0,0,1-.52,3.55c-.8,3.4.62,7.55,3.86,9.18A7.24,7.24,0,0,0,58,91.47a7.83,7.83,0,0,0,1.42-2.73,7.18,7.18,0,0,0-4.06-8.67A14.34,14.34,0,0,1,48.6,73.5c-.25-.54-.5-1.12-.74-1.76-2.66-7.16-1.31-15.55,1.62-22.44a15.32,15.32,0,0,1,5.73-6.37,5.81,5.81,0,0,0,2.13-2.6A6.75,6.75,0,0,0,56.82,34c-2.45-4-7.93-5.13-11.34-2a7.54,7.54,0,0,0-2,7c.37,2.14,1.28,4.15,1.54,6.3a15.21,15.21,0,0,1-.59,6.5l0,.11a14.8,14.8,0,0,1-13.2,10c-2.7.17-6.3.29-10.56.19a11.34,11.34,0,0,1-6-2C13,59,11.72,57.45,9.8,56.93,5.35,55.73-.06,58.89,0,63.78Z"/><circle class="cls-1" cx="28.64" cy="50.83" r="7.03"/><path class="cls-2" d="M32.86,19.89a9.19,9.19,0,0,0,4.59,1.88c2.07.21,4.15-.39,6.24-.32C47,21.56,49.93,22.8,53,24s6.17,2.61,8.61,4.87a16.13,16.13,0,0,1,4.6,15.78c0,.12-.06.25-.1.37a20.51,20.51,0,0,1-1.91,3c-2.1,2.79-2.49,7.16-.18,10a7.23,7.23,0,0,0,8.48,1.72,7.8,7.8,0,0,0,2.4-1.91,7.19,7.19,0,0,0-.21-9.58,14.28,14.28,0,0,1-3.51-8.73q0-.9,0-1.92c.47-7.62,5.1-14.74,10.56-19.86a15.34,15.34,0,0,1,7.82-3.51,5.84,5.84,0,0,0,3-1.51,6.81,6.81,0,0,0,2.08-6C94,2.14,89.46-1.14,85.05.37A7.56,7.56,0,0,0,80.41,6c-.52,2.1-.51,4.3-1.14,6.38A15,15,0,0,1,76.1,18l-.07.09A14.82,14.82,0,0,1,59.92,21.9c-4.75-1.76-11-3.48-14.09-7.82-1.56-2.21-2.13-4.84-4.7-6.19A8.19,8.19,0,0,0,33.24,8a7.11,7.11,0,0,0-2.36,9.71A8.46,8.46,0,0,0,32.86,19.89Z"/><circle class="cls-2" cx="86.34" cy="33.89" r="7.03"/><text class="cls-3" transform="translate(53.06 71.48)">LEKIA</text></g></g></svg>