<svg xmlns="http://www.w3.org/2000/svg" viewBox="0 0 197.32 95.24"><defs><style>.cls-1{fill:#00a1bf;}.cls-2{fill:#0cd676;}</style></defs><g id="Vrstva_2" data-name="Vrstva 2"><g id="Vrstva_1-2" data-name="Vrstva 1"><path class="cls-1" d="M56.82,21.51c-2.45-4-7.93-5.13-11.34-2C40,25.19,47.56,32.89,44.4,39.42,40.78,49.83,30.72,50,20.64,49.58c-3.4.2-5.77-2-8.35-3.75C7.71,42.41,0,45.13,0,51.28c.39,8.58,9.72,8.7,15.39,4.85a7.23,7.23,0,0,1,2.48-1.08c7.11-1.61,16.7,1.81,24.21,9.23a28.25,28.25,0,0,0,3-1.83l2.18-1.36c.24-.16.88-.42.92-.69C46.34,52.65,46.4,44,49.48,36.79,51.67,31,61.3,29.09,56.82,21.51Z"/><path class="cls-1" d="M54.85,72.25s0,0,0,0a1.62,1.62,0,0,0-.42.64,20.23,20.23,0,0,1-3.2,5.41A40.9,40.9,0,0,1,53.16,85c2.46,12.44,15,13.43,16.59,3.54a5.63,5.63,0,0,0-.45-3.31c-1.43-2.9-4.3-4.71-6.79-6.64A63,63,0,0,1,54.85,72.25Z"/><path class="cls-1" d="M29.11,41.34c.11,7.29-11.36,7.3-11.25,0C17.75,34,29.22,34,29.11,41.34Z"/><path class="cls-2" d="M168.31,30.71c-6.08-9.1-20.62-6.2-29.3-1.74-5.59,2.75-9.29,4.78-13.67,5.79C110.1,38.33,80.92,37.61,73.63,21,71.12,14.46,75.32,2.1,66,.15a7.16,7.16,0,0,0-8.34,8.46c.64,3.83,3.52,5.59,6.19,8,6.94,6.77,12.35,19.79,5.87,28.48-4,4.75-9.39,8.1-14.31,11.8-2.28,1.62-4.65,3.13-7,4.69-4.86,2.73-9.64,5.63-9.61,11.92-.24,4.45,4.69,6.33,8.66,5.26a6.24,6.24,0,0,0,4-2.42c1.27-1.93,2.16-4.12,3.35-6.11,5-10.2,15.11-18.6,21.69-27.69,5.28-7.28,13.32-3.79,21.37-2a71.07,71.07,0,0,0,31.72-.1c6.63-1.68,12.11-4.26,17.61-5.79,3.48-1,8.24-.34,10.88,2.49,4.72,5.19,2.42,16.7-1,22.15,4.15-2.94,7.67-7,11.18-13.46C170.71,41.28,171.11,35.21,168.31,30.71Z"/><path class="cls-2" d="M62,30.36A7,7,0,0,1,70.8,35c2.44,9-10.32,13-13.43,4.19A7,7,0,0,1,62,30.36Z"/><path class="cls-2" d="M73.47,37.06h3v19h17v3h-20Z"/><path class="cls-2" d="M97.47,37.06h21v3h-18v7h17v2h-17v7h18v3h-21Z"/><path class="cls-2" d="M150.89,59.06h-5.76l-14.42-10h-3.24v10h-3v-22h3v9h2.94l10.1-7c2.72-2,5.59-3.9,9-4.13a10.1,10.1,0,0,1,11.09,11,9.11,9.11,0,0,0-9.5-8.82c-2.29.07-4.13,1.52-5.94,2.76-3.64,2.55-7.16,5.24-10.83,7.74"/><path class="cls-2" d="M185.76,37.06l11.56,22h-3.44l-2.67-5H175.16l-2.63,5h-3.44l11.56-22Zm3.56,14-5.7-11h-.8l-5.7,11Z"/></g></g></svg>